Normalized EMG Linear Envelopes
nRows=154
nColumns=4

endheader
time	 med_gas_r	  soleus_r	 tib_ant_r	
2.37485	  0.108281	  0.084799	  0.027428	
2.43734	  0.111699	  0.087301	  0.027713	
2.49984	  0.115726	  0.090712	  0.027670	
2.56234	  0.116677	  0.093086	  0.027443	
2.62483	  0.115180	  0.093373	  0.027383	
2.68733	  0.115832	  0.091349	  0.027676	
2.74982	  0.114122	  0.088372	  0.028458	
2.81232	  0.110113	  0.085894	  0.029530	
2.87482	  0.110151	  0.084709	  0.030343	
2.93731	  0.110789	  0.084893	  0.031037	
2.99981	  0.111029	  0.085794	  0.031360	
3.0623	  0.115458	  0.087121	  0.031085	
3.1248	  0.117048	  0.088500	  0.030434	
3.1873	  0.115090	  0.089126	  0.029565	
3.24979	  0.116931	  0.090390	  0.028826	
3.31229	  0.121456	  0.093782	  0.028637	
3.37478	  0.119394	  0.098399	  0.028698	
3.43728	  0.111524	  0.100668	  0.028599	
3.49978	  0.103570	  0.099449	  0.028546	
3.56227	  0.097108	  0.096074	  0.028333	
3.62477	  0.097292	  0.091866	  0.027698	
3.68726	  0.100115	  0.088830	  0.026815	
3.74976	  0.102959	  0.087250	  0.026434	
3.81226	  0.107723	  0.087187	  0.026924	
3.87475	  0.108325	  0.088257	  0.027711	
3.93725	  0.103684	  0.089559	  0.028329	
3.99974	  0.104316	  0.090630	  0.028508	
4.06224	  0.107378	  0.090558	  0.028326	
4.12474	  0.110687	  0.091133	  0.028500	
4.18723	  0.115723	  0.091783	  0.029179	
4.24973	  0.118085	  0.091665	  0.029951	
4.31222	  0.119456	  0.090658	  0.030496	
4.37472	  0.120261	  0.087974	  0.030263	
4.43722	  0.117391	  0.081646	  0.029288	
4.49971	  0.119899	  0.075713	  0.027836	
4.56221	  0.138307	  0.079507	  0.027209	
4.6247	  0.185155	  0.104167	  0.029222	
4.6872	  0.265255	  0.160893	  0.036016	
4.7497	  0.373821	  0.253831	  0.049581	
4.81219	  0.487888	  0.365139	  0.068923	
4.87469	  0.583172	  0.470601	  0.088067	
4.93718	  0.648260	  0.555138	  0.099998	
4.99968	  0.673815	  0.600948	  0.105939	
5.06218	  0.671378	  0.605135	  0.110083	
5.12467	  0.658399	  0.587498	  0.116326	
5.18717	  0.644263	  0.575094	  0.123651	
5.24966	  0.628562	  0.568980	  0.125896	
5.31216	  0.620505	  0.561848	  0.120468	
5.37466	  0.619134	  0.545490	  0.112640	
5.43715	  0.619004	  0.516484	  0.105516	
5.49965	  0.611401	  0.486307	  0.099296	
5.56214	  0.607881	  0.461307	  0.094494	
5.62464	  0.609779	  0.446838	  0.091916	
5.68714	  0.615368	  0.440888	  0.091355	
5.74963	  0.607208	  0.441440	  0.093031	
5.81213	  0.598582	  0.441764	  0.095329	
5.87462	  0.595770	  0.447958	  0.097355	
5.93712	  0.606532	  0.461855	  0.099303	
5.99962	  0.621654	  0.484351	  0.100424	
6.06211	  0.638370	  0.517927	  0.101885	
6.12461	  0.651083	  0.563553	  0.104128	
6.1871	  0.667754	  0.610814	  0.105931	
6.2496	  0.680503	  0.643474	  0.107897	
6.3121	  0.673123	  0.655314	  0.109887	
6.37459	  0.646498	  0.649264	  0.110706	
6.43709	  0.618619	  0.636627	  0.109370	
6.49958	  0.588935	  0.632218	  0.106357	
6.56208	  0.579234	  0.636408	  0.102058	
6.62458	  0.593691	  0.633940	  0.099873	
6.68707	  0.607051	  0.611962	  0.100202	
6.74957	  0.596806	  0.584136	  0.102083	
6.81206	  0.569658	  0.562109	  0.103671	
6.87456	  0.566593	  0.562312	  0.104247	
6.93706	  0.585831	  0.586813	  0.104084	
6.99955	  0.609133	  0.624645	  0.104857	
7.06205	  0.626021	  0.665616	  0.107337	
7.12454	  0.634494	  0.700043	  0.110947	
7.18704	  0.641574	  0.722312	  0.113227	
7.24954	  0.659903	  0.712326	  0.111949	
7.31203	  0.674997	  0.672076	  0.108387	
7.37453	  0.673971	  0.648690	  0.106001	
7.43702	  0.661471	  0.648597	  0.104983	
7.49952	  0.662966	  0.655726	  0.104284	
7.56202	  0.678003	  0.666678	  0.103036	
7.62451	  0.673882	  0.676346	  0.101849	
7.68701	  0.653681	  0.675336	  0.100984	
7.7495	  0.650553	  0.685748	  0.101341	
7.812	  0.663270	  0.708679	  0.104121	
7.8745	  0.683132	  0.712925	  0.106409	
7.93699	  0.683771	  0.699018	  0.106225	
7.99949	  0.667617	  0.675530	  0.103825	
8.06198	  0.650001	  0.651493	  0.100919	
8.12448	  0.636644	  0.630464	  0.097926	
8.18698	  0.644162	  0.624036	  0.093013	
8.24947	  0.673618	  0.643040	  0.088696	
8.31197	  0.706176	  0.665473	  0.086896	
8.37446	  0.725757	  0.680690	  0.088276	
8.43696	  0.719991	  0.694852	  0.091517	
8.49946	  0.689678	  0.716565	  0.093928	
8.56195	  0.670829	  0.751174	  0.095964	
8.62445	  0.668070	  0.776410	  0.097925	
8.68694	  0.661972	  0.766951	  0.098747	
8.74944	  0.650766	  0.741051	  0.097965	
8.81194	  0.626843	  0.722933	  0.094697	
8.87443	  0.611059	  0.721027	  0.091374	
8.93693	  0.611471	  0.711908	  0.089024	
8.99942	  0.608376	  0.667666	  0.086164	
9.06192	  0.597565	  0.624575	  0.085075	
9.12442	  0.585549	  0.620835	  0.085064	
9.18691	  0.573372	  0.646417	  0.086601	
9.24941	  0.570705	  0.679508	  0.090970	
9.3119	  0.565895	  0.708503	  0.095961	
9.3744	  0.561323	  0.708659	  0.099039	
9.4369	  0.556682	  0.690595	  0.100074	
9.49939	  0.572050	  0.681338	  0.099427	
9.56189	  0.612946	  0.680728	  0.098161	
9.62438	  0.662248	  0.684948	  0.095910	
9.68688	  0.684069	  0.678051	  0.092834	
9.74938	  0.680326	  0.667827	  0.088416	
9.81187	  0.672773	  0.673581	  0.083342	
9.87437	  0.672388	  0.686168	  0.080325	
9.93686	  0.671641	  0.685975	  0.079704	
9.99936	  0.671697	  0.675657	  0.082207	
10.0619	  0.674863	  0.664918	  0.086449	
10.1244	  0.682199	  0.660030	  0.090821	
10.1868	  0.694622	  0.648835	  0.094286	
10.2493	  0.688951	  0.624315	  0.095167	
10.3118	  0.675883	  0.600478	  0.093524	
10.3743	  0.654317	  0.596810	  0.089197	
10.4368	  0.619241	  0.602483	  0.083681	
10.4993	  0.586409	  0.607775	  0.078205	
10.5618	  0.546739	  0.597747	  0.072412	
10.6243	  0.500782	  0.542437	  0.067280	
10.6868	  0.456160	  0.452901	  0.065387	
10.7493	  0.432380	  0.365569	  0.066635	
10.8118	  0.415833	  0.295960	  0.068966	
10.8743	  0.407505	  0.250609	  0.072950	
10.9368	  0.406949	  0.222789	  0.077169	
10.9993	  0.393244	  0.199965	  0.078796	
11.0618	  0.375366	  0.183384	  0.077224	
11.1243	  0.358121	  0.165497	  0.072274	
11.1868	  0.344813	  0.153507	  0.064964	
11.2493	  0.332083	  0.155877	  0.059646	
11.3118	  0.342423	  0.163281	  0.056472	
11.3743	  0.377978	  0.169362	  0.054154	
11.4368	  0.415035	  0.172211	  0.051260	
11.4993	  0.424947	  0.168370	  0.047930	
11.5618	  0.396604	  0.160657	  0.045587	
11.6243	  0.355127	  0.153721	  0.044336	
11.6868	  0.312829	  0.144892	  0.043142	
11.7492	  0.280001	  0.133708	  0.041631	
11.8117	  0.262340	  0.122755	  0.040094	
11.8742	  0.269309	  0.116527	  0.039799	
11.9367	  0.292099	  0.115597	  0.041806	
